<svg width="24" height="24" viewBox="0 0 24 24" fill="none" xmlns="http://www.w3.org/2000/svg">
<path d="M12 24C11.1273 23.2205 10.1818 22.6154 9.16364 22.1846C8.14545 21.7538 7.09091 21.5385 6 21.5385C5.03636 21.5385 3.99545 21.7641 2.87727 22.2154C1.75909 22.6667 0.8 23.2205 0 23.8769V6.18462C0.872727 5.58974 1.80909 5.12821 2.80909 4.8C3.80909 4.4718 4.87273 4.30769 6 4.30769C7.05455 4.30769 8.08636 4.46154 9.09545 4.76923C10.1045 5.07692 11.0727 5.53846 12 6.15385V21.7231C12.9273 21.0462 13.9 20.5385 14.9182 20.2C15.9364 19.8615 16.9636 19.6923 18 19.6923C18.6545 19.6923 19.3682 19.7641 20.1409 19.9077C20.9136 20.0513 21.6545 20.3487 22.3636 20.8V5.26154C22.6182 5.3641 22.9045 5.50256 23.2227 5.67692C23.5409 5.85128 23.8 6.02051 24 6.18462V23.8769C23.2 23.2205 22.2409 22.6667 21.1227 22.2154C20.0045 21.7641 18.9636 21.5385 18 21.5385C16.9091 21.5385 15.8545 21.7538 14.8364 22.1846C13.8182 22.6154 12.8727 23.2205 12 24ZM13.6364 18.8615V8L20.7273 0V11.9077L13.6364 18.8615ZM10.3636 20.8V7.29231C9.74545 6.90256 9.02727 6.61538 8.20909 6.43077C7.39091 6.24615 6.65455 6.15385 6 6.15385C5.14545 6.15385 4.35 6.25641 3.61364 6.46154C2.87727 6.66667 2.21818 6.93333 1.63636 7.26154V20.8C2.27273 20.4513 2.95909 20.1795 3.69545 19.9846C4.43182 19.7897 5.2 19.6923 6 19.6923C6.81818 19.6923 7.59091 19.7897 8.31818 19.9846C9.04545 20.1795 9.72727 20.4513 10.3636 20.8ZM10.3636 20.8V7.29231V20.8Z" fill="url(#paint0_linear_227_120)"/>
<defs>
<linearGradient id="paint0_linear_227_120" x1="18" y1="3.33333" x2="18" y2="27.3333" gradientUnits="userSpaceOnUse">
<stop stop-color="#F24F1A"/>
<stop offset="1" stop-color="#C83015"/>
</linearGradient>
</defs>
</svg>
