<svg width="24" height="24" viewBox="0 0 24 24" fill="none" xmlns="http://www.w3.org/2000/svg">
<path d="M11.81 24L16.724 9.6H18.9502L24 24H21.638L20.5249 20.22H15.3122L14.0362 24H11.81ZM15.9095 18.12H19.7647L17.8643 12.3H17.81L15.9095 18.12ZM3.25792 20.4L1.76471 18.75L7.30317 12.63C6.61538 11.75 6.00452 10.865 5.47059 9.975C4.93665 9.085 4.47059 8.16 4.0724 7.2H6.43439C6.74208 7.86 7.08145 8.485 7.45249 9.075C7.82353 9.665 8.24434 10.27 8.71493 10.89C9.52941 9.95 10.2081 8.975 10.7511 7.965C11.2941 6.955 11.7557 5.9 12.1357 4.8H0V2.4H7.60181V0H9.77376V2.4H17.3756V4.8H14.3077C13.9095 6.18 13.3801 7.535 12.7195 8.865C12.0588 10.195 11.2489 11.46 10.2896 12.66L12.9502 15.63L12.1357 18.06L8.68778 14.4L3.25792 20.4Z" fill="url(#paint0_linear_227_124)"/>
<defs>
<linearGradient id="paint0_linear_227_124" x1="18" y1="3.33333" x2="18" y2="27.3333" gradientUnits="userSpaceOnUse">
<stop stop-color="#F24F1A"/>
<stop offset="1" stop-color="#C83015"/>
</linearGradient>
</defs>
</svg>
