<svg width="170" height="38" viewBox="0 0 170 38" fill="none" xmlns="http://www.w3.org/2000/svg">
<path d="M35.144 37H27.416L26.84 23.992C26.68 20.888 26.6 18.12 26.6 15.688C26.6 13.832 26.648 12.072 26.744 10.408L21.608 33.496H14.168L8.69598 10.408C8.88798 13.192 8.98398 15.816 8.98398 18.28C8.98398 20.136 8.93598 22.072 8.83998 24.088L8.26398 37H0.583984L3.07998 3.736H13.016L18.008 26.296L22.664 3.736H32.648L35.144 37Z" fill="#0E0E0E"/>
<path d="M59.9664 29.608C59.9664 30.568 60.0944 31.272 60.3504 31.72C60.6384 32.168 61.0864 32.504 61.6944 32.728L60.1104 37.672C58.5424 37.544 57.2624 37.208 56.2704 36.664C55.2784 36.088 54.5104 35.192 53.9664 33.976C52.3024 36.536 49.7424 37.816 46.2864 37.816C43.7584 37.816 41.7424 37.08 40.2384 35.608C38.7344 34.136 37.9824 32.216 37.9824 29.848C37.9824 27.064 39.0064 24.936 41.0544 23.464C43.1024 21.992 46.0624 21.256 49.9344 21.256H52.5264V20.152C52.5264 18.648 52.2064 17.624 51.5664 17.08C50.9264 16.504 49.8064 16.216 48.2064 16.216C47.3744 16.216 46.3664 16.344 45.1824 16.6C43.9984 16.824 42.7824 17.144 41.5344 17.56L39.8064 12.568C41.4064 11.96 43.0384 11.496 44.7024 11.176C46.3984 10.856 47.9664 10.696 49.4064 10.696C53.0544 10.696 55.7264 11.448 57.4224 12.952C59.1184 14.456 59.9664 16.712 59.9664 19.72V29.608ZM48.4944 32.392C50.2224 32.392 51.5664 31.576 52.5264 29.944V25.432H50.6544C48.9264 25.432 47.6304 25.736 46.7664 26.344C45.9344 26.952 45.5184 27.896 45.5184 29.176C45.5184 30.2 45.7744 31 46.2864 31.576C46.8304 32.12 47.5664 32.392 48.4944 32.392Z" fill="#0E0E0E"/>
<path d="M79.8312 10.792C80.7592 10.792 81.6072 10.904 82.3752 11.128L81.1752 18.472C80.2152 18.248 79.4472 18.136 78.8712 18.136C77.3672 18.136 76.2152 18.664 75.4152 19.72C74.6472 20.744 74.0392 22.296 73.5912 24.376V37H66.0072V11.512H72.6312L73.2552 16.456C73.8312 14.696 74.6952 13.32 75.8472 12.328C77.0312 11.304 78.3592 10.792 79.8312 10.792Z" fill="#0E0E0E"/>
<path d="M94.8597 10.696C96.6197 10.696 98.2037 10.952 99.6117 11.464C101.02 11.976 102.348 12.76 103.596 13.816L100.332 18.328C98.7317 17.112 97.1157 16.504 95.4837 16.504C93.7877 16.504 92.5077 17.128 91.6437 18.376C90.7797 19.624 90.3477 21.64 90.3477 24.424C90.3477 27.112 90.7797 29.016 91.6437 30.136C92.5077 31.256 93.7557 31.816 95.3877 31.816C96.2517 31.816 97.0357 31.688 97.7397 31.432C98.4437 31.144 99.2917 30.696 100.284 30.088L103.596 34.792C101.068 36.808 98.2037 37.816 95.0037 37.816C92.4117 37.816 90.1717 37.272 88.2837 36.184C86.3957 35.064 84.9397 33.512 83.9157 31.528C82.8917 29.512 82.3797 27.16 82.3797 24.472C82.3797 21.784 82.8917 19.4 83.9157 17.32C84.9397 15.24 86.3957 13.624 88.2837 12.472C90.1717 11.288 92.3637 10.696 94.8597 10.696Z" fill="#0E0E0E"/>
<path d="M128.075 23.752C128.075 24.808 128.027 25.72 127.931 26.488H112.139C112.395 28.632 113.003 30.136 113.963 31C114.923 31.864 116.251 32.296 117.947 32.296C118.971 32.296 119.963 32.12 120.923 31.768C121.883 31.384 122.923 30.808 124.043 30.04L127.163 34.264C124.187 36.632 120.875 37.816 117.227 37.816C113.099 37.816 109.931 36.6 107.723 34.168C105.515 31.736 104.411 28.472 104.411 24.376C104.411 21.784 104.875 19.464 105.803 17.416C106.731 15.336 108.091 13.704 109.883 12.52C111.675 11.304 113.819 10.696 116.315 10.696C119.995 10.696 122.875 11.848 124.955 14.152C127.035 16.456 128.075 19.656 128.075 23.752ZM120.635 21.592C120.571 17.688 119.195 15.736 116.507 15.736C115.195 15.736 114.171 16.216 113.435 17.176C112.731 18.136 112.299 19.72 112.139 21.928H120.635V21.592Z" fill="#0E0E0E"/>
<path d="M139.103 37.816C136.895 37.816 135.167 37.192 133.919 35.944C132.703 34.664 132.095 32.856 132.095 30.52V1.38399L139.679 0.567993V30.232C139.679 31.288 140.111 31.816 140.975 31.816C141.423 31.816 141.839 31.736 142.223 31.576L143.711 36.952C142.335 37.528 140.799 37.816 139.103 37.816Z" fill="#0E0E0E"/>
<path d="M157.391 10.696C161.295 10.696 164.351 11.896 166.559 14.296C168.767 16.664 169.871 19.992 169.871 24.28C169.871 27 169.359 29.384 168.335 31.432C167.343 33.448 165.903 35.016 164.015 36.136C162.159 37.256 159.951 37.816 157.391 37.816C153.519 37.816 150.463 36.632 148.223 34.264C146.015 31.864 144.911 28.52 144.911 24.232C144.911 21.512 145.407 19.144 146.399 17.128C147.423 15.08 148.863 13.496 150.719 12.376C152.607 11.256 154.831 10.696 157.391 10.696ZM157.391 16.264C155.855 16.264 154.703 16.92 153.935 18.232C153.167 19.512 152.783 21.512 152.783 24.232C152.783 27.016 153.151 29.048 153.887 30.328C154.655 31.608 155.823 32.248 157.391 32.248C158.927 32.248 160.079 31.608 160.847 30.328C161.615 29.016 161.999 27 161.999 24.28C161.999 21.496 161.615 19.464 160.847 18.184C160.111 16.904 158.959 16.264 157.391 16.264Z" fill="#0E0E0E"/>
</svg>
